<svg xmlns="http://www.w3.org/2000/svg" width="30" height="30" viewBox="0 0 300 300">
  <defs>
    <style>
      .cls-1 {
        fill: #1c73ae;
      }

      .cls-1, .cls-2 {
        fill-rule: evenodd;
      }

      .cls-2 {
        fill: #d05b0d;
      }
    </style>
  </defs>
  <path id="Preenchimento_de_Cor_2" data-name="Preenchimento de Cor 2" class="cls-1" d="M149.073,10.153c7.458-.094,6.676,6.59,6.676,13.957V59.74c-1.876-.808-5-2.943-7.889-1.82a27.018,27.018,0,0,1-4.075,1.734V49.164c0-.89.283-3.1-0.347-3.381H117.431c-4.193,0-7.583.094-9.362-2.254-1.689-2.228-1.127-7.318-1.127-11.183,0-4.009-.77-12.015.953-14.3,1.958-2.6,5.511-2.514,10.143-2.514h25.487c0.622-.234.931-2.221,1.3-2.774C145.882,11.172,147.245,11.024,149.073,10.153ZM15.136,255.661H275.815c6.355,0,10.977-.963,13.524,3.121a4.5,4.5,0,0,1,.867,3.207c-1.658,7.307-9.012,5.722-17.6,5.722H19.124l-4.855-.174a6.225,6.225,0,0,1-3.9-8.235C11.263,257.133,12.9,256.561,15.136,255.661Zm0,21.932H275.815c6.118,0,11.027-.9,13.437,3.035a4.69,4.69,0,0,1,.954,3.381c-1.667,7.284-9.014,5.722-17.6,5.721H61.429l-46.64-.087c-3.794-1.209-6.454-5.137-3.814-9.449C11.9,278.687,13.466,278.4,15.136,277.593Z"/>
  <path id="Preenchimento_de_Cor_1" data-name="Preenchimento de Cor 1" class="cls-2" d="M148.813,58.006c2.884-.078,4.025.988,5.9,1.734,4.268,1.7,8.015,3.7,12.05,5.375,14.008,5.806,27.366,13.01,41.178,18.985,3.687,1.595,7.177,3.352,10.75,4.941a19.1,19.1,0,0,1,3.988,1.82,6.086,6.086,0,0,1,1.994,3.554c0.736,3.939-2.415,6.2-5.2,6.762-1.71.342-4.173-.472-5.461,0.26v27.308c0,2.292-.509,9.486.173,11.009h52.881c5.33,0,17.514-.9,20.459,1.214a8.024,8.024,0,0,1,2.6,4.335q0.043,10.054.087,20.112-0.043,29.341-.087,58.689l0.087,3.555L290.119,243a8.005,8.005,0,0,1-1.387,2.947c-1.756,2.228-4.966,2.081-9.016,2.081h-18.2l-83.743-.087-0.087-.26q-0.044-23.4-.086-46.813c0-5.252.984-13.6-1.388-16.644-1.861-2.392-5.4-2.168-9.709-2.168H145.692c-4.711,0-18.205-.834-20.805.867-3.624,2.371-2.428,10.954-2.428,16.818v45.079c0,1.146.206,2.884-.173,3.728l-82.79.087H20.858c-4.105.184-7.718,0.107-9.449-2.081-2.522-3.186-1.474-11.677-1.474-17.165V155.186c0-4.2-.692-10.212,1.04-12.83,2.591-3.916,12.621-2.6,19.072-2.6H80.674c1.429,0,3.758.321,4.855-.173q-0.043-19.113-.087-38.231c-1.392-.413-3.4.138-5.028-0.173-3.1-.593-6.885-4.9-4.681-8.843,1.234-2.2,3.385-2.686,5.722-3.814,4.394-2.121,8.936-4.006,13.437-6.155,8.784-4.194,17.631-8.582,26.787-12.223l15.258-7.2C140.862,61.286,144.935,59.92,148.813,58.006Zm-25.66,37.277c-2.088.929-3.635,1.552-4.508,3.641s-0.347,5.995-.347,8.669c0,6.974-1.371,13.486,3.815,15.6a4.667,4.667,0,0,0,2.687.521c6.018-.987,5.883-7.42,5.288-14.478C129.453,101.712,131.968,95.168,123.153,95.283Zm25.487,0c-1.934.917-3.5,1.5-4.335,3.468-1.028,2.427-.433,6.128-0.433,9.1,0,6.369-1.19,12.187,2.861,14.911a4.84,4.84,0,0,0,3.207.954c7.338-.905,5.722-8.472,5.722-16.385,0-3.371.393-7.483-.954-9.536C153.533,96,151.711,95.24,148.64,95.283Zm24.88,0c-1.791.875-3.342,1.488-4.161,3.294-1.077,2.375-.52,5.862-0.52,9.1,0,6.741-1.422,13.518,3.814,15.517a4.622,4.622,0,0,0,2.167.521c7.445-.81,5.808-8.458,5.809-16.385,0-3.355.405-7.5-.954-9.536C178.469,95.993,176.638,95.24,173.52,95.283ZM123.5,133.254c-2.2.974-4,1.468-4.855,3.727-0.847,2.24-.347,6.191-0.347,9.016,0,6.928-1.35,17.015,6.675,15.691,6.083-1,5.2-7.4,5.2-14.3C130.175,140.124,131.063,133.165,123.5,133.254Zm25.487,0c-2.154.961-3.885,1.471-4.768,3.641s-0.347,6.151-.347,9.1c0,5.789-1.265,12.935,3.207,15a5.738,5.738,0,0,0,3.555.693c5.888-1.022,5.028-7.193,5.028-14.044C155.662,140.108,156.676,133.149,148.987,133.254Zm25.053,0c-2.118.935-3.969,1.365-4.768,3.554-0.837,2.292-.017,5.69-0.433,8.582v11.53a5.952,5.952,0,0,0,6.848,4.768c5.775-.981,4.942-7.156,4.942-13.87C180.629,140.307,181.689,133.17,174.04,133.254ZM41.924,164.809l-1.647.173a6.7,6.7,0,0,0-3.554,3.208c-1.028,2.129-.52,6.326-0.52,9.276,0,7.859-1.624,15.378,6.068,15.864,7.238,0.458,5.808-9.944,5.808-16.9,0-3.255.394-7.31-.954-9.275C46.111,165.67,44.366,164.882,41.924,164.809Zm24.88,0c-2.459.939-3.915,0.922-5.028,3.207-1.011,2.076-.607,5.959-0.607,8.93,0,6.576-1.173,12.788,3.034,15.431a4.935,4.935,0,0,0,3.121.953,6.481,6.481,0,0,0,4.855-2.861c1.366-2.231.78-6.308,0.78-9.8C72.959,173.271,74.686,164.968,66.8,164.809Zm25.487,0c-2.9,1.13-4.4,1.2-5.375,4.334-0.75,2.418-.087,5.806-0.087,8.5,0,6.6-1.413,13.466,3.9,15.171a5.5,5.5,0,0,0,2.947.433c6.436-1.343,4.855-9.31,4.855-16.818,0-2.937.409-6.842-.694-8.755A6.114,6.114,0,0,0,92.291,164.809Zm113.911,0c-2.524,1.01-4.073,1.49-5.028,3.988-0.672,1.757-.173,6.179-0.173,8.409,0,6.767-1.431,13.885,3.9,15.6a5.345,5.345,0,0,0,2.948.433c4.237-.968,4.854-3.942,4.854-9.275v-5.115C212.084,171.5,214.439,164.732,206.2,164.809Zm25.314,0c-2.843,1.088-4.078.881-5.288,3.728-0.946,2.224.152,5.818-.26,8.5v5.288c0,5.773-.15,9.122,4.161,10.577a5.321,5.321,0,0,0,2.774.346c6.324-1.494,4.855-9.015,4.855-16.557,0-2.855.426-6.72-.607-8.67A6.27,6.27,0,0,0,231.516,164.809Zm25.574,0c-2.679,1.029-4.051.892-5.2,3.554-0.927,2.144-.433,6.169-0.433,9.016,0,6.185-1.113,12.469,2.861,14.911a5.385,5.385,0,0,0,3.988.953c6.336-1.238,5.028-9.193,5.028-16.644,0-3.381.337-7.264-1.041-9.276A6.137,6.137,0,0,0,257.09,164.809Zm0,38.577c-2.514.96-4.414,1.31-5.288,3.815-0.775,2.219-.347,5.966-0.347,8.755,0,6.762-1.229,12.71,3.728,14.824a4.881,4.881,0,0,0,2.774.521c6.485-1.042,5.375-8.02,5.375-15.431,0-2.85.428-6.676-.434-8.843C261.913,204.55,259.954,204.1,257.09,203.386Zm-216.033.087c-1.916.982-3.685,1.525-4.421,3.641-0.811,2.331-.433,6.184-0.433,9.189,0,6.709-1.215,16.219,6.5,15,6.867-1.087,5.375-8.545,5.375-16.212,0-3.3.361-7.253-.954-9.275C45.982,204.055,44.056,203.433,41.057,203.473Zm24.88,0c-1.711.906-3.359,1.432-4.161,3.207-0.992,2.2-.607,6.177-0.607,9.276,0,6.82-1.22,12.729,3.814,14.824a4.994,4.994,0,0,0,2.861.521c6.448-1.077,4.4-6,5.115-12.31v-6.069C72.959,206.827,72.255,203.391,65.937,203.473Zm25.66,0c-1.778.869-3.48,1.382-4.248,3.207-0.941,2.239-.426,6.15-0.52,9.19-0.186,6.014-1.131,13.046,3.468,14.824a5.483,5.483,0,0,0,3.121.607c6.693-1.089,5.115-8.879,5.115-16.385,0-2.962.429-6.926-.78-8.756C96.554,204.347,94.706,203.433,91.6,203.473Zm114.172,0c-2.164,1.054-3.967,1.8-4.681,4.248l-0.087,8.5c0,6.285-1.106,12.647,3.468,14.478a5.365,5.365,0,0,0,3.207.607c5.967-1.048,5.028-7.183,5.028-14.044C212.7,209.721,213.928,203.362,205.769,203.473Zm24.967,0c-2.019.979-3.689,1.6-4.508,3.728-0.88,2.289-.26,5.951-0.26,8.669,0,6.706-1.366,12.762,3.641,14.91a4.811,4.811,0,0,0,2.774.521c6.826-1.095,5.375-8.4,5.375-16.038,0-2.891.448-6.887-.694-8.756C235.829,204.486,234.1,203.429,230.736,203.473Z"/>
</svg>
