<?xml version="1.0" encoding="iso-8859-1"?>
<!-- Generator: Adobe Illustrator 19.0.0, SVG Export Plug-In . SVG Version: 6.00 Build 0)  -->
<svg version="1.1" id="Capa_1" xmlns="http://www.w3.org/2000/svg" xmlns:xlink="http://www.w3.org/1999/xlink" x="0px" y="0px"
	 viewBox="0 0 512 512" style="enable-background:new 0 0 512 512;" xml:space="preserve">
<path style="fill:#DBDBDB;" d="M264.533,93.867h-17.067V8.533C247.467,3.814,251.281,0,256,0h26.197v17.067h-17.664V93.867z"/>
<polygon style="fill:#C7463B;" points="257.707,0 298.667,0 298.667,42.667 247.467,42.667 247.467,0 "/>
<rect x="256" y="34.133" style="fill:#B9B9B9;" width="8.533" height="51.2"/>
<polygon style="fill:#DC4D41;" points="472.67,281.6 392.533,281.336 392.533,332.8 392.533,503.467 494.933,503.467 494.933,332.8 
	"/>
<rect x="392.533" y="332.8" style="fill:#D68F29;" width="102.4" height="170.667"/>
<polygon style="fill:#DC4D41;" points="39.33,281.6 17.067,332.8 17.067,503.467 119.467,503.467 119.467,332.8 119.467,281.336 "/>
<rect x="17.067" y="332.8" style="fill:#D68F29;" width="102.4" height="170.667"/>
<polygon style="fill:#EA9D2D;" points="392.533,196.267 256.213,68.267 119.467,196.745 119.467,196.267 119.467,503.467 
	392.533,503.467 "/>
<g>
	<rect x="170.667" y="273.067" style="fill:#8ACED8;" width="34.133" height="34.133"/>
	<rect x="238.933" y="273.067" style="fill:#8ACED8;" width="34.133" height="34.133"/>
	<rect x="307.2" y="273.067" style="fill:#8ACED8;" width="34.133" height="34.133"/>
	<rect x="170.667" y="204.8" style="fill:#8ACED8;" width="34.133" height="34.133"/>
	<rect x="238.933" y="204.8" style="fill:#8ACED8;" width="34.133" height="34.133"/>
	<rect x="307.2" y="204.8" style="fill:#8ACED8;" width="34.133" height="34.133"/>
</g>
<g>
	<rect x="51.2" y="366.933" style="fill:#6FBBC6;" width="34.133" height="34.133"/>
	<rect x="51.2" y="435.2" style="fill:#6FBBC6;" width="34.133" height="34.133"/>
	<rect x="426.667" y="366.933" style="fill:#6FBBC6;" width="34.133" height="34.133"/>
	<rect x="426.667" y="435.2" style="fill:#6FBBC6;" width="34.133" height="34.133"/>
</g>
<rect x="119.467" y="341.333" style="fill:#DC4D41;" width="273.067" height="34.133"/>
<rect x="153.6" y="375.467" style="fill:#D68F29;" width="34.133" height="128"/>
<rect x="119.467" y="375.467" style="fill:#EA9D2D;" width="34.133" height="128"/>
<rect x="324.267" y="375.467" style="fill:#D68F29;" width="34.133" height="128"/>
<rect x="358.4" y="375.467" style="fill:#EA9D2D;" width="34.133" height="128"/>
<circle style="fill:#B9B9B9;" cx="256" cy="145.067" r="25.6"/>
<ellipse style="fill:#DBDBDB;" cx="251.733" cy="145.067" rx="21.333" ry="25.173"/>
<rect x="187.733" y="375.467" style="fill:#EA9D2D;" width="136.533" height="128"/>
<rect x="221.867" y="409.6" style="fill:#B47923;" width="68.267" height="93.867"/>
<rect x="221.867" y="426.667" style="fill:#D68F29;" width="51.2" height="76.8"/>
<g>
	<rect x="93.867" y="332.8" style="fill:#B47923;" width="25.6" height="170.667"/>
	<rect x="392.533" y="332.8" style="fill:#B47923;" width="25.6" height="170.667"/>
</g>
<g>
	<polygon style="fill:#C7463B;" points="392.533,307.2 392.533,332.8 494.933,332.8 483.797,307.2 	"/>
	<polygon style="fill:#C7463B;" points="28.203,307.2 17.067,332.8 119.467,332.8 119.467,307.2 	"/>
</g>
<rect x="17.067" y="332.8" style="fill:#B47923;" width="102.4" height="17.067"/>
<polygon style="fill:#DC4D41;" points="256,0 290.133,0 290.133,42.667 247.467,42.667 247.467,0 "/>
<path d="M204.8,264.533h-34.133c-4.719,0-8.533,3.814-8.533,8.533V307.2c0,4.719,3.814,8.533,8.533,8.533H204.8
	c4.719,0,8.533-3.814,8.533-8.533v-34.133C213.333,268.348,209.519,264.533,204.8,264.533z M196.267,298.667H179.2V281.6h17.067
	V298.667z"/>
<path d="M273.067,264.533h-34.133c-4.719,0-8.533,3.814-8.533,8.533V307.2c0,4.719,3.814,8.533,8.533,8.533h34.133
	c4.719,0,8.533-3.814,8.533-8.533v-34.133C281.6,268.348,277.786,264.533,273.067,264.533z M264.533,298.667h-17.067V281.6h17.067
	V298.667z"/>
<path d="M307.2,315.733h34.133c4.719,0,8.533-3.814,8.533-8.533v-34.133c0-4.719-3.814-8.533-8.533-8.533H307.2
	c-4.719,0-8.533,3.814-8.533,8.533V307.2C298.667,311.919,302.481,315.733,307.2,315.733z M315.733,281.6H332.8v17.067h-17.067
	V281.6z"/>
<path d="M204.8,196.267h-34.133c-4.719,0-8.533,3.814-8.533,8.533v34.133c0,4.719,3.814,8.533,8.533,8.533H204.8
	c4.719,0,8.533-3.814,8.533-8.533V204.8C213.333,200.081,209.519,196.267,204.8,196.267z M196.267,230.4H179.2v-17.067h17.067V230.4
	z"/>
<path d="M273.067,196.267h-34.133c-4.719,0-8.533,3.814-8.533,8.533v34.133c0,4.719,3.814,8.533,8.533,8.533h34.133
	c4.719,0,8.533-3.814,8.533-8.533V204.8C281.6,200.081,277.786,196.267,273.067,196.267z M264.533,230.4h-17.067v-17.067h17.067
	V230.4z"/>
<path d="M307.2,247.467h34.133c4.719,0,8.533-3.814,8.533-8.533V204.8c0-4.719-3.814-8.533-8.533-8.533H307.2
	c-4.719,0-8.533,3.814-8.533,8.533v34.133C298.667,243.652,302.481,247.467,307.2,247.467z M315.733,213.333H332.8V230.4h-17.067
	V213.333z"/>
<path d="M85.333,358.4H51.2c-4.719,0-8.533,3.814-8.533,8.533v34.133c0,4.719,3.814,8.533,8.533,8.533h34.133
	c4.719,0,8.533-3.814,8.533-8.533v-34.133C93.867,362.214,90.052,358.4,85.333,358.4z M76.8,392.533H59.733v-17.067H76.8V392.533z"
	/>
<path d="M85.333,426.667H51.2c-4.719,0-8.533,3.814-8.533,8.533v34.133c0,4.719,3.814,8.533,8.533,8.533h34.133
	c4.719,0,8.533-3.814,8.533-8.533V435.2C93.867,430.481,90.052,426.667,85.333,426.667z M76.8,460.8H59.733v-17.067H76.8V460.8z"/>
<path d="M426.667,409.6H460.8c4.719,0,8.533-3.814,8.533-8.533v-34.133c0-4.719-3.814-8.533-8.533-8.533h-34.133
	c-4.719,0-8.533,3.814-8.533,8.533v34.133C418.133,405.786,421.948,409.6,426.667,409.6z M435.2,375.467h17.067v17.067H435.2
	V375.467z"/>
<path d="M426.667,477.867H460.8c4.719,0,8.533-3.814,8.533-8.533V435.2c0-4.719-3.814-8.533-8.533-8.533h-34.133
	c-4.719,0-8.533,3.814-8.533,8.533v34.133C418.133,474.052,421.948,477.867,426.667,477.867z M435.2,443.733h17.067V460.8H435.2
	V443.733z"/>
<path d="M358.4,512h34.133h102.4c4.719,0,8.533-3.814,8.533-8.533V332.8c0-0.119-0.068-0.222-0.068-0.35
	c-0.043-0.956-0.205-1.903-0.563-2.807c-0.026-0.068-0.034-0.145-0.06-0.213c-0.009-0.009-0.009-0.026-0.009-0.034l-22.263-51.2
	c-1.348-3.106-4.412-5.129-7.799-5.137l-71.637-0.23v-76.561h-0.051c0-2.27-0.853-4.54-2.645-6.221L264.533,64.375V51.2H307.2V0
	h-25.003h-17.664h-17.067v64.785L113.621,190.524c-1.655,1.562-2.517,3.635-2.637,5.743h-0.051v76.561l-71.629,0.239
	c-3.388,0.009-6.451,2.022-7.799,5.137l-22.263,51.2c-0.009,0.009-0.009,0.026-0.009,0.034c-0.026,0.068-0.034,0.137-0.06,0.205
	c-0.367,0.905-0.529,1.852-0.563,2.807c-0.009,0.128-0.077,0.23-0.077,0.35v170.667c0,4.719,3.814,8.533,8.533,8.533h102.4H153.6
	h34.133h34.133h68.267h34.133H358.4z M290.133,401.067h-68.267c-4.719,0-8.533,3.814-8.533,8.533v85.333h-17.067V384h119.467
	v110.933h-17.067V409.6C298.667,404.881,294.852,401.067,290.133,401.067z M128,366.933v-17.067h256v17.067h-25.6h-34.133H187.733
	H153.6H128z M384,384v110.933h-17.067V384H384z M384,281.336V332.8H128v-51.465v-80.905L256.213,79.974L384,199.953V281.336z
	 M332.8,494.933V384h17.067v110.933H332.8z M486.4,494.933h-85.333v-153.6H486.4V494.933z M467.064,290.116l14.857,34.15h-80.853
	v-34.372L467.064,290.116z M282.197,17.067h7.936v17.067h-25.6V17.067H282.197z M44.937,290.116l65.997-0.222v34.372H30.08
	L44.937,290.116z M25.6,341.333h85.333v153.6H25.6V341.333z M128,384h17.067v110.933H128V384z M162.133,494.933V384H179.2v110.933
	H162.133z M230.4,494.933v-76.8h51.2v76.8H230.4z"/>
<path d="M221.867,145.067c0,18.825,15.309,34.133,34.133,34.133c18.825,0,34.133-15.309,34.133-34.133S274.825,110.933,256,110.933
	C237.175,110.933,221.867,126.242,221.867,145.067z M273.067,145.067c0,9.412-7.654,17.067-17.067,17.067
	c-9.412,0-17.067-7.654-17.067-17.067c0-9.412,7.654-17.067,17.067-17.067C265.412,128,273.067,135.654,273.067,145.067z"/>
<g>
</g>
<g>
</g>
<g>
</g>
<g>
</g>
<g>
</g>
<g>
</g>
<g>
</g>
<g>
</g>
<g>
</g>
<g>
</g>
<g>
</g>
<g>
</g>
<g>
</g>
<g>
</g>
<g>
</g>
</svg>
