<svg xmlns="http://www.w3.org/2000/svg" xmlns:xlink="http://www.w3.org/1999/xlink" width="512" height="512" viewBox="0 0 512 512">
  <defs>
    <style>
      .cls-1, .cls-2, .cls-3, .cls-4, .cls-5, .cls-6, .cls-7, .cls-8, .cls-9 {
        fill-rule: evenodd;
      }

      .cls-2 {
        fill: #571ca1;
      }

      .cls-3 {
        fill: #4b007f;
      }

      .cls-4 {
        fill: #a055fe;
      }

      .cls-5 {
        fill: #9700e5;
      }

      .cls-6 {
        fill: #6e00a7;
      }

      .cls-7 {
        fill: #610073;
      }

      .cls-8 {
        fill: #d6b4ff;
      }

      .cls-9 {
        fill: url(#radial-gradient);
      }
    </style>
    <radialGradient id="radial-gradient" cx="256" cy="256" r="256" gradientUnits="userSpaceOnUse">
      <stop offset="0" stop-color="#6700a9"/>
      <stop offset="1" stop-color="#692aea"/>
    </radialGradient>
  </defs>
  <path id="BORDA" class="cls-1" d="M256.407,501.869L7.414,320.965,102.521,28.257H410.292L505.4,320.965Z"/>
  <path id="LATERAL_5" data-name="LATERAL 5" class="cls-2" d="M256.411,447.818L54.728,301.287,131.764,64.194H381.058l77.036,237.093ZM188,177L110.183,36.946H402.63L307,195Z"/>
  <path id="LATERAL_4" data-name="LATERAL 4" class="cls-3" d="M256.411,447.818L54.728,301.287,131.764,64.194H381.058l77.036,237.093ZM417,286L372,76l30.63-39.054L493,315.079Z"/>
  <path id="Preenchimento_de_Cor_2" data-name="Preenchimento de Cor 2" class="cls-4" d="M111,37H402C385.615,47.11,160.122,67.254,131,63Z"/>
  <path id="LATERAL_3" data-name="LATERAL 3" class="cls-5" d="M256.411,447.818L54.728,301.287,131.764,64.194H381.058l77.036,237.093Zm0,39.156L256,429,445,296l48,19.079Z"/>
  <path id="LATERAL_2" data-name="LATERAL 2" class="cls-6" d="M256.411,447.818L54.728,301.287,131.764,64.194H381.058l77.036,237.093Zm0,39.156L19.812,315.079,63,299,256,441Z"/>
  <path id="LATERAL_1" data-name="LATERAL 1" class="cls-7" d="M63,299L19.812,315.079,110.183,36.946,138,71Z"/>
  <path id="INTERNO" class="cls-8" d="M256.411,447.818L54.728,301.287,131.764,64.194H381.058l77.036,237.093Z"/>
  <path id="Preenchimento_Gradiente_1" data-name="Preenchimento Gradiente 1" class="cls-9" d="M110,171H403l37,120L255,424,72,290Z"/>
  <path id="_1" data-name="1" class="cls-1" d="M213.932,233.87l11.8,31,25.8-10.6v79.6h40.8V201.67h-2Z"/>
  <path id="RANK" class="cls-1" d="M168.85,99.425v45.36h14.688L183.61,128.8l0.72-.072,8.928,17.5,13.32-6.408-7.416-13.1,0.792-.576a12.089,12.089,0,0,0,4.14-5.184,19.081,19.081,0,0,0,1.188-6.552,14.576,14.576,0,0,0-1.584-7.344,12.721,12.721,0,0,0-4.392-4.752,16.364,16.364,0,0,0-5.652-2.268,30.989,30.989,0,0,0-6.084-.612H168.85Zm14.688,20.592v-8.424h1.008q1.152,0,2.16.036a5.972,5.972,0,0,1,1.944.4,4.341,4.341,0,0,1,1.764,1.188,3.23,3.23,0,0,1,.684,2.412,3.92,3.92,0,0,1-.792,2.556,4.046,4.046,0,0,1-1.872,1.332,6.783,6.783,0,0,1-1.98.432q-1.044.072-2.052,0.072h-0.864Zm37.944,28.224,2.232-5.4h17.064l2.232,5.4,15.48-6.408L233.218,96.689h-1.224l-25.128,45.144Zm15.192-15.264h-8.856l4.464-10.584L234.226,127Zm24.335-35.352v47.16H275.7v-17.5l23.9,19.656h1.152V99.425H286.065v18.216L262.017,97.625h-1.008Zm45,1.8v45.36H320.7V128.8l0.72-.072q1.151,2.16,2.628,5.148t2.808,5.724q1.33,2.736,2.268,4.644t0.936,1.98a1,1,0,0,0,.576-0.18q0.575-.253,1.512-0.684t2.124-1.008q1.188-.576,2.412-1.224l6.7-3.312-1.728-3.312q-0.864-1.656-1.728-3.24-1.442-2.736-3.132-5.652t-3.06-4.932q1.3-1.944,3.24-4.9l3.744-5.688q1.007-1.656,2.088-3.312t2.232-3.312l-7.272-3.312L335.1,100.9q-1.3-.612-2.3-1.044t-1.62-.684a1.1,1.1,0,0,0-.612-0.18,17.126,17.126,0,0,1-1.044,2.088q-1.046,1.944-2.484,4.716t-3.06,5.8q-1.62,3.024-2.7,5.256l-0.288-.216-0.288.072V99.425H306.009Z"/>
</svg>
